<?xml version="1.0" encoding="UTF-8"?>
<svg id="_레이어_1" data-name="레이어 1" xmlns="http://www.w3.org/2000/svg" viewBox="0 0 282 61.31">
  <defs>
    <style>
      .cls-1 {
        fill: #004e9d;
      }

      .cls-1, .cls-2, .cls-3 {
        stroke-width: 0px;
      }

      .cls-2 {
        fill: #f08c00;
      }

      .cls-3 {
        fill: #686d70;
      }
    </style>
  </defs>
  <path class="cls-3" d="M140.04,38.63c.6.54,1.06,1.16,1.4,1.84.36.76.53,1.57.53,2.45,0,1.83-.7,3.35-2.08,4.57-1.29,1.13-2.81,1.69-4.55,1.69s-3.25-.56-4.55-1.69c-1.36-1.23-2.05-2.75-2.05-4.57,0-.87.17-1.67.5-2.42.31-.69.76-1.32,1.35-1.86h-2.76v-2.18h6.12v-2.39h2.71v2.39h6.2v2.18h-2.82ZM129.28,51.76h2.46v5.66h18.56v2.28h-19.5c-.57,0-.97-.13-1.19-.38-.22-.25-.33-.74-.33-1.46v-6.1ZM132.36,39.84c-.87.8-1.3,1.79-1.3,2.98s.43,2.16,1.3,2.98c.83.75,1.81,1.14,2.94,1.14s2.08-.38,2.91-1.14c.87-.8,1.31-1.8,1.31-2.98s-.44-2.18-1.31-2.98c-.83-.74-1.8-1.11-2.91-1.11s-2.11.37-2.94,1.11M150.13,44.19v7.41h-2.45v-16.15h2.45v6.45h3.35v2.28h-3.35Z"/>
  <polygon class="cls-3" points="177.55 44.02 177.55 46.31 166.69 46.31 166.69 51.04 176.33 51.04 176.33 59.8 173.87 59.8 173.87 53.32 154.79 53.32 154.79 51.04 164.33 51.04 164.33 46.31 153.93 46.31 153.93 44.02 173.87 44.02 173.87 37.74 154.81 37.74 154.81 35.46 176.33 35.46 176.33 44.02 177.55 44.02"/>
  <path class="cls-3" d="M194.61,35.46v2.23h-5.45c.06,1.74.47,3.1,1.25,4.12.92,1.21,2.36,1.94,4.31,2.19v2.45c-1.45-.12-2.73-.48-3.82-1.08-1.31-.72-2.33-1.77-3.07-3.15-.79,1.36-1.92,2.43-3.38,3.21-1.18.6-2.38.94-3.6,1.02v-2.42c1.99-.29,3.44-1.03,4.34-2.22.77-.99,1.19-2.36,1.25-4.12h-5.42v-2.23h13.58ZM199.22,48.55c1.61,1.38,2.41,3.16,2.41,5.34s-.81,3.96-2.41,5.37c-1.49,1.3-3.27,1.95-5.33,1.95s-3.79-.65-5.22-1.95c-1.55-1.4-2.32-3.19-2.32-5.37s.77-3.96,2.32-5.34c1.43-1.29,3.18-1.93,5.22-1.93s3.84.64,5.33,1.93M190.43,50.16c-1.09.98-1.64,2.22-1.64,3.74s.55,2.69,1.64,3.67c1.01.93,2.18,1.41,3.52,1.41s2.57-.47,3.62-1.41c1.1-.99,1.65-2.21,1.65-3.67s-.55-2.76-1.65-3.74c-1.03-.87-2.24-1.31-3.62-1.31s-2.53.43-3.52,1.31M200.11,39.61v-4.15h2.46v11.11h-2.46v-4.73h-4.21v-2.23h4.21Z"/>
  <path class="cls-3" d="M228.07,46.21c0,.72-.12,1.21-.36,1.46-.21.24-.6.35-1.19.35h-7.36v8.15h10.46v2.28h-23.24v-2.28h10.42v-8.15h-7.43c-.59,0-.99-.11-1.19-.35-.22-.25-.34-.74-.34-1.46v-10.75h2.46v3.53h15.29v-3.53h2.46v10.75ZM210.32,45.84h15.29v-4.62h-15.29v4.62Z"/>
  <path class="cls-3" d="M244.33,36.41c1.48,1.3,2.22,2.93,2.22,4.9s-.74,3.57-2.22,4.87c-1.39,1.22-3,1.84-4.83,1.84s-3.46-.61-4.83-1.84c-1.46-1.3-2.19-2.93-2.19-4.87s.73-3.6,2.19-4.9c1.37-1.23,2.98-1.84,4.83-1.84s3.44.61,4.83,1.84M234.11,51.76h2.46v5.66h18.56v2.28h-19.5c-.57,0-.96-.13-1.19-.38-.22-.25-.33-.74-.33-1.46v-6.1ZM236.38,38.06c-.93.88-1.39,1.96-1.39,3.24s.46,2.32,1.39,3.16c.88.82,1.93,1.23,3.12,1.23s2.24-.41,3.13-1.23c.94-.84,1.41-1.89,1.41-3.16s-.48-2.36-1.41-3.24c-.91-.8-1.95-1.2-3.13-1.2s-2.24.4-3.12,1.2M252.5,35.46h2.46v16.18h-2.46v-16.18Z"/>
  <path class="cls-3" d="M282,46.15v2.23h-6.7c.89.62,1.57,1.38,2.06,2.25.55.94.83,1.98.83,3.13,0,2.24-.81,4.08-2.41,5.53-1.5,1.34-3.29,2.02-5.38,2.02s-3.97-.67-5.48-2.02c-1.61-1.42-2.41-3.27-2.41-5.53,0-1.13.26-2.17.8-3.13.48-.87,1.16-1.63,2.05-2.25h-6.62v-2.23h23.26ZM272.17,37.69c.07,1.17,1.01,2.01,2.82,2.54,1.42.43,3.47.67,6.14.73v2.33c-2.31,0-4.21-.15-5.72-.47-2.38-.51-4.05-1.39-5.03-2.66-1,1.27-2.7,2.14-5.12,2.63-1.45.29-3.34.45-5.64.5v-2.31c2.67-.05,4.7-.29,6.08-.7,1.81-.53,2.76-1.4,2.85-2.6h-8.93v-2.23h21.52v2.23h-8.96ZM266.59,50c-1.12,1.05-1.68,2.31-1.68,3.77s.56,2.69,1.68,3.74c1.09,1.05,2.35,1.57,3.77,1.57s2.6-.52,3.69-1.57c1.15-1.05,1.72-2.3,1.72-3.74s-.58-2.72-1.72-3.77c-1.09-1.03-2.32-1.55-3.69-1.55s-2.68.52-3.77,1.55"/>
  <path class="cls-2" d="M26.52,19.56c2.25-7.51,9.21-12.99,17.46-12.99s15.21,5.48,17.46,12.99h6.78C65.81,8.38,55.87,0,43.97,0s-21.83,8.38-24.24,19.56h6.78Z"/>
  <path class="cls-2" d="M47.25,16.47h-3.77s-3.29,0-3.29,0c-1.42,0-1.99.78-1.99,2.1v31.73c0,1.42.75,2.14,2.22,2.14h6.61c1.46,0,2.21-.71,2.21-2.14v-31.73c0-1.31-.57-2.1-1.99-2.1"/>
  <path class="cls-1" d="M20.11,41.96s11.97-13.53,12.77-14.46c1.12-1.31.3-2.69-1.2-2.69h-6.23s-2.61-.15-4.48,2.14l-10.08,11.75v-11.84c0-1.31-.55-2.1-1.81-2.1h-3.46s-3.62,0-3.62,0c-1.42,0-1.99.78-1.99,2.1v31.72c0,1.43.75,2.14,2.21,2.14h6.46c1.46,0,2.22-.71,2.22-2.14v-12.88l10.21,12.87s1.83,2.11,4.52,2.11h7.03c1.69,0,2.47-1.34,1.4-2.57-1.15-1.33-13.95-16.13-13.95-16.13"/>
  <path class="cls-1" d="M117.83,52.13c-.69-1.87-8.13-20.78-9.42-24.16-1.24-3.25-5.29-3.22-5.29-3.22h-5.75s-4.04-.03-5.29,3.22c-.78,2.04-6.05,15.59-9.55,24.57h-9.85c-2.32,0-3.97-.26-4.95-.77-.98-.51-1.75-1.42-2.3-2.7-.56-1.29-.83-4.1-.83-6.98,0-3.81.62-5.41,1.86-6.81,1.24-1.41,3.3-2.11,6.18-2.11,0,0,1.77.03,3.57.03,9.26,0,9.86-8.49,9.86-8.49h-15.11c-3.26,0-5.89.44-7.89,1.32-2.01.88-3.66,2.15-4.97,3.8-1.31,1.65-2.26,3.57-2.85,5.76-.59,2.19-.88,4.51-.88,6.96,0,3.84.44,6.82,1.31,8.93.88,2.12,2.09,3.89,3.65,5.32,1.55,1.43,3.22,2.38,5.01,2.86,2.44.65,4.65.98,6.63.98h14.07c.14,0,.27-.02.4-.05h1.1c4.48,0,5.8-3.94,5.8-3.94l8.19-24.32,7.16,20.31h-11.8s.85,7.94,9.03,7.94c4.6,0,7.63,0,7.63,0,3.9,0,7.65-2.15,5.32-8.45"/>
</svg>