<svg width="38" height="18" viewBox="0 0 38 18" fill="none" xmlns="http://www.w3.org/2000/svg">
<path fill-rule="evenodd" clip-rule="evenodd" d="M36.5879 9.40872L36.5906 9.41144L29.5565 16.4367L28.1497 15.0316L33.4146 9.77335L1 9.77335L1 7.78631L32.9737 7.78631L28.1497 2.96844L29.5565 1.56339L36.9998 8.99732L36.5879 9.40872Z" fill="white"/>
<path d="M36.5879 9.40872L36.2346 9.05495L35.8803 9.40878L36.2346 9.76255L36.5879 9.40872ZM36.5906 9.41144L36.944 9.76522L37.2982 9.41139L36.9439 9.05761L36.5906 9.41144ZM29.5565 16.4367L29.2032 16.7905L29.5565 17.1433L29.9099 16.7905L29.5565 16.4367ZM28.1497 15.0316L27.7964 14.6779L27.4422 15.0316L27.7964 15.3854L28.1497 15.0316ZM33.4146 9.77335L33.768 10.1271L34.6228 9.27335L33.4146 9.27335L33.4146 9.77335ZM1 9.77335L0.5 9.77335L0.5 10.2733L1 10.2733L1 9.77335ZM1 7.78631L1 7.28631L0.5 7.28631L0.5 7.78631L1 7.78631ZM32.9737 7.78631L32.9737 8.28631L34.1818 8.28631L33.327 7.43253L32.9737 7.78631ZM28.1497 2.96844L27.7964 2.61466L27.4422 2.96844L27.7964 3.32222L28.1497 2.96844ZM29.5565 1.56339L29.9099 1.20962L29.5565 0.856731L29.2032 1.20962L29.5565 1.56339ZM36.9998 8.99732L37.3532 9.35109L37.7074 8.99732L37.3532 8.64354L36.9998 8.99732ZM36.2346 9.76255L36.2373 9.76527L36.9439 9.05761L36.9412 9.05489L36.2346 9.76255ZM36.2373 9.05767L29.2032 16.0829L29.9099 16.7905L36.944 9.76522L36.2373 9.05767ZM29.9099 16.0829L28.503 14.6779L27.7964 15.3854L29.2032 16.7905L29.9099 16.0829ZM28.503 15.3854L33.768 10.1271L33.0613 9.41957L27.7964 14.6779L28.503 15.3854ZM33.4146 9.27335L1 9.27335L1 10.2733L33.4146 10.2733L33.4146 9.27335ZM1.5 9.77335L1.5 7.78631L0.5 7.78631L0.5 9.77335L1.5 9.77335ZM1 8.28631L32.9737 8.28631L32.9737 7.28631L1 7.28631L1 8.28631ZM27.7964 3.32222L32.6203 8.14008L33.327 7.43253L28.503 2.61466L27.7964 3.32222ZM29.2032 1.20962L27.7964 2.61466L28.503 3.32222L29.9099 1.91717L29.2032 1.20962ZM37.3532 8.64354L29.9099 1.20962L29.2032 1.91717L36.6465 9.35109L37.3532 8.64354ZM36.9412 9.7625L37.3532 9.35109L36.6465 8.64354L36.2346 9.05495L36.9412 9.7625Z" fill="white"/>
</svg>
