<svg width="189" height="189" viewBox="0 0 189 189" fill="none" xmlns="http://www.w3.org/2000/svg">
<g opacity="0.5">
<path d="M183.602 113.468C185.203 113.46 186.306 112.357 186.569 110.783C186.924 108.655 185.544 106.899 182.611 106.41C179.642 105.914 177.8 107.151 177.448 109.261C177.191 110.799 177.84 112.194 179.31 112.752L178.919 115.095C176.493 114.323 174.848 111.952 175.361 108.876C175.931 105.46 178.835 103.371 183.002 104.067C187.187 104.765 189.231 107.716 188.667 111.097C188.19 113.958 186.156 115.898 183.211 115.811L183.602 113.468Z" fill="#003779"/>
<path d="M169.223 129.634L180.768 135.882L179.646 137.955L174.751 135.306L171.843 140.68L176.738 143.329L175.608 145.418L164.062 139.17L165.193 137.081L170.104 139.739L173.013 134.365L168.101 131.707L169.223 129.634Z" fill="#003779"/>
<path d="M152.309 153.571L154.163 151.864L159.653 164.654L157.518 166.619L145.212 160.104L147.066 158.397L150.065 160.048L153.707 156.696L152.309 153.571ZM154.529 158.526L151.821 161.019L156.728 163.699L156.808 163.625L154.529 158.526Z" fill="#003779"/>
<path d="M136.735 178.576L137.529 180.386L127.948 184.588L127.155 182.778L130.857 181.154L126.378 170.942L128.537 169.995L133.016 180.207L136.735 178.576Z" fill="#003779"/>
<path d="M104.948 176.925L106.032 190.007L101.027 190.422C98.1898 190.657 96.6606 189.328 96.4989 187.377C96.3671 185.787 97.3056 184.817 98.5632 184.404L98.5527 184.277C97.1553 184.32 95.65 183.281 95.4853 181.293C95.3161 179.251 96.654 177.612 99.6536 177.363L104.948 176.925ZM100.178 179.303C98.4616 179.445 97.8002 180.246 97.8855 181.276C97.9828 182.451 98.9793 183.278 100.443 183.157L103.081 182.938L102.762 179.089L100.178 179.303ZM100.855 184.833C99.6079 184.936 98.7282 185.737 98.824 186.893C98.9079 187.905 99.6906 188.568 101.1 188.451L103.521 188.251L103.222 184.637L100.855 184.833Z" fill="#003779"/>
<path d="M65.1715 179.652C66.2131 175.539 69.3233 173.746 72.663 174.592C76.0026 175.437 77.8799 178.513 76.8428 182.608C75.8012 186.721 72.691 188.515 69.3513 187.669C66.0116 186.823 64.1299 183.766 65.1715 179.652ZM67.4741 180.236C66.7397 183.136 67.798 185.087 69.8721 185.612C71.9462 186.138 73.8057 184.925 74.5402 182.025C75.2746 179.125 74.2163 177.173 72.1422 176.648C70.0681 176.123 68.2086 177.335 67.4741 180.236Z" fill="#003779"/>
<path d="M47.1593 176.417L46.0783 178.072L37.3197 172.349L38.4007 170.695L41.7858 172.906L47.8849 163.571L49.8582 164.86L43.7591 174.196L47.1593 176.417Z" fill="#003779"/>
<path d="M8.5003 120.68L10.301 120.062L12.2203 125.653L10.4196 126.271L8.5003 120.68Z" fill="#003779"/>
<path d="M14.1418 72.1255L0.524438 71.3615L1.34868 68.9606L11.2607 69.852L11.3019 69.732L2.97951 64.2102L3.7331 62.015L13.7152 62.758L13.7505 62.6551L5.36393 57.2646L6.18817 54.8636L17.4034 62.6247L16.6439 64.837L7.06112 64.3269L7.03169 64.4127L14.9012 69.9132L14.1418 72.1255Z" fill="#003779"/>
<path d="M26.405 46.6705L16.0455 38.6074L21.2909 31.868L22.8506 33.0819L19.0529 37.9612L21.886 40.1663L25.4053 35.6448L26.9649 36.8587L23.4457 41.3802L26.2788 43.5853L30.0988 38.6775L31.6727 39.9025L26.405 46.6705Z" fill="#003779"/>
<path d="M45.1441 27.69L37.964 16.7001L42.1687 13.953C44.5519 12.396 46.5293 12.8368 47.6003 14.4762C48.473 15.812 48.1089 17.1111 47.1998 18.0733L47.2692 18.1796C48.4777 17.4767 50.2964 17.6746 51.3873 19.3443C52.508 21.0596 52.1115 23.138 49.5917 24.7843L45.1441 27.69ZM48.2071 23.328C49.6491 22.3859 49.8497 21.3669 49.2844 20.5016C48.6398 19.515 47.3698 19.2618 46.1403 20.0651L43.924 21.513L46.0364 24.7462L48.2071 23.328ZM44.9803 18.7869C46.0277 18.1027 46.4204 16.9798 45.7857 16.0083C45.2303 15.1582 44.2264 14.9477 43.0424 15.7213L41.0084 17.0502L42.9918 20.0861L44.9803 18.7869Z" fill="#003779"/>
<path d="M64.3698 3.24986L67.1821 2.53767L73.3025 10.8263L73.4607 10.7862L74.8985 0.583619L77.7109 -0.128564L80.9335 12.5973L78.7363 13.1537L76.5197 4.40027L76.3966 4.43143L75.0714 14.0444L73.4367 14.4583L67.687 6.59959L67.5816 6.6263L69.8071 15.4149L67.5924 15.9757L64.3698 3.24986Z" fill="#003779"/>
<path d="M103.066 -0.78301L101.982 12.2997L99.6332 12.1051L100.717 -0.977663L103.066 -0.78301Z" fill="#003779"/>
<path d="M137.683 9.15194L132.409 21.1738L130.483 20.3289L128.393 9.61129L128.294 9.56759L124.688 17.787L122.53 16.8401L127.803 4.81823L129.762 5.67769L131.819 16.3808L131.935 16.4317L135.541 8.21236L137.683 9.15194Z" fill="#003779"/>
<path d="M146.703 30.7383L152.872 18.5748L154.74 20.2941L149.942 29.0132L150.036 29.0991L158.435 23.6958L160.143 25.2677L155.453 34.1106L155.533 34.1843L163.838 28.6694L165.706 30.3887L154.093 37.5417L152.372 35.9575L156.689 27.3867L156.622 27.3253L148.424 32.3225L146.703 30.7383Z" fill="#003779"/>
<path d="M175.903 58.3893C172.172 60.4087 168.746 59.3352 167.106 56.3053C165.466 53.2754 166.457 49.8115 170.173 47.8007C173.904 45.7813 177.331 46.8548 178.97 49.8847C180.61 52.9145 179.635 56.3699 175.903 58.3893ZM174.773 56.3003C177.404 54.8763 178.123 52.7761 177.104 50.8944C176.086 49.0127 173.935 48.4658 171.303 49.8897C168.672 51.3136 167.953 53.4139 168.972 55.2956C169.99 57.1773 172.141 57.7242 174.773 56.3003Z" fill="#003779"/>
<path d="M189.513 84.5441L176.565 86.7048L176.219 84.6302L184.048 77.0184L184.03 76.9111L175.177 78.3884L174.789 76.0634L187.738 73.9027L188.09 76.0131L180.255 83.5891L180.275 83.7143L189.128 82.237L189.513 84.5441Z" fill="#003779"/>
</g>
</svg>
